<svg width="24" height="24" viewBox="0 0 24 24" fill="none" xmlns="http://www.w3.org/2000/svg">
<g clip-path="url(#clip0_13_2)">
<path d="M12 0C5.37298 0 0 5.37298 0 12C0 18.6278 5.37298 24 12 24C18.627 24 24 18.6278 24 12C23.9999 5.37298 18.6269 0 12 0ZM15.3614 21.1417C15.2924 20.2027 15.2152 19.0394 15.2107 18.5684C15.1807 18.2069 15.1416 17.2875 14.2687 16.7002C17.7344 16.41 19.3836 14.4945 19.5022 11.9633C19.6012 10.5218 19.0281 9.25424 18.0105 8.23128C18.0622 7.13706 17.9774 5.84026 17.907 5.27033C17.1255 5.04534 15.303 6.00758 14.7937 6.41933C13.7197 6.00231 11.091 5.85608 9.49348 6.41933C8.36095 5.62285 7.07173 5.13085 6.369 5.2681C5.72022 6.70586 6.13725 8.06486 6.26396 8.22683C5.42842 8.99036 4.26294 9.93011 4.57946 11.8988C5.08719 14.7856 7.11819 16.3426 10.3882 16.7235C9.6907 16.8661 9.5729 17.3866 9.5144 17.6123C7.31839 18.5183 6.6907 17.0528 6.41315 16.6711C5.49145 15.5303 4.66415 15.8611 4.61315 15.879C4.56364 15.897 4.52616 15.969 4.53143 16.0035C4.57789 16.2495 5.07969 16.4993 5.10441 16.5195C5.78465 17.0265 6.03666 17.9422 6.19187 18.2032C7.16762 19.8075 9.43564 19.1422 9.45739 19.1558C9.45888 19.296 9.44166 20.4765 9.42815 21.3953C5.29274 20.2657 2.24998 16.4932 2.24998 12C2.24998 6.61499 6.61499 2.25006 11.9999 2.25006C17.3848 2.25006 21.7499 6.61499 21.7499 12C21.7499 16.2022 19.0875 19.7714 15.3614 21.1417Z" fill="#1ADB16"/>
</g>
<defs>
<clipPath id="clip0_13_2">
<rect width="24" height="24" fill="white"/>
</clipPath>
</defs>
</svg>
