<svg width="24" height="24" viewBox="0 0 24 24" fill="none" xmlns="http://www.w3.org/2000/svg">
<path d="M2.81573 0C1.18436 0 0 1.12535 0 2.67473C0 4.22359 1.16086 5.3479 2.75933 5.3479C3.58859 5.3479 4.30297 5.07896 4.82569 4.57033C5.32701 4.08207 5.60326 3.40895 5.60273 2.66272C5.56618 1.09506 4.41994 0 2.81573 0ZM4.09774 3.82202C3.77397 4.1369 3.31078 4.30349 2.75933 4.30349C1.74991 4.30349 1.04441 3.63402 1.04441 2.67473C1.04441 1.69978 1.75617 1.04441 2.81573 1.04441C3.85126 1.04441 4.53535 1.68933 4.55885 2.67525C4.55832 3.12539 4.39487 3.53219 4.09774 3.82202Z" fill="#1ADB16"/>
<path d="M0.500793 23.4861H5.19437V6.22986H0.500793V23.4861ZM1.5452 7.27427H4.14996V22.4412H1.5452V7.27427Z" fill="#1ADB16"/>
<path d="M17.5711 6.22986C15.3946 6.22986 14.0619 6.98131 13.2901 7.68785L13.1434 6.22986H7.83307V23.4856H13.0337V14.4165C13.0337 14.0259 13.1919 13.2149 13.2912 13.0008C13.9194 11.6477 14.7669 11.6477 16.0505 11.6477C17.5288 11.6477 18.778 13.0342 18.778 14.675V23.4866H24V13.7371C24 8.57873 20.6673 6.22986 17.5711 6.22986ZM22.9556 22.4417H19.8224V14.6744C19.8224 12.4671 18.0949 10.6028 16.0505 10.6028C14.7387 10.6028 13.2525 10.6028 12.3433 12.5611C12.1559 12.9658 11.9888 13.9355 11.9888 14.4165V22.4417H8.87748V7.27427H12.1987L12.4118 9.38606H13.2677L13.4207 9.13906C13.769 8.57821 14.8703 7.27375 17.5711 7.27375C20.1644 7.27375 22.9556 9.29572 22.9556 13.7355V22.4417Z" fill="#1ADB16"/>
</svg>
