<svg width="18" height="18" viewBox="0 0 18 18" fill="none" xmlns="http://www.w3.org/2000/svg">
<path d="M16.875 18C14.8417 18 12.8208 17.5 10.8125 16.5C8.80417 15.5 7 14.2 5.4 12.6C3.8 11 2.5 9.19583 1.5 7.1875C0.5 5.17917 0 3.15833 0 1.125C0 0.808333 0.108333 0.541667 0.325 0.325C0.541667 0.108333 0.808333 0 1.125 0H4.625C4.85833 0 5.0625 0.0791666 5.2375 0.2375C5.4125 0.395833 5.525 0.608333 5.575 0.875L6.25 4.025C6.28333 4.25833 6.27917 4.47083 6.2375 4.6625C6.19583 4.85417 6.10833 5.01667 5.975 5.15L3.475 7.675C4.40833 9.225 5.45417 10.575 6.6125 11.725C7.77083 12.875 9.08333 13.85 10.55 14.65L12.925 12.2C13.0917 12.0167 13.2833 11.8875 13.5 11.8125C13.7167 11.7375 13.9333 11.725 14.15 11.775L17.125 12.425C17.375 12.475 17.5833 12.6 17.75 12.8C17.9167 13 18 13.2333 18 13.5V16.875C18 17.1917 17.8917 17.4583 17.675 17.675C17.4583 17.8917 17.1917 18 16.875 18ZM2.725 6.3L4.75 4.25L4.175 1.5H1.5C1.5 2.15 1.6 2.8625 1.8 3.6375C2 4.4125 2.30833 5.3 2.725 6.3ZM11.95 15.375C12.6333 15.6917 13.375 15.95 14.175 16.15C14.975 16.35 15.75 16.4667 16.5 16.5V13.825L13.925 13.3L11.95 15.375Z" fill="#1ADB16"/>
</svg>
