<svg width="530" height="148" viewBox="0 0 530 148" fill="none" xmlns="http://www.w3.org/2000/svg">
<path d="M14.576 5.104C22.4 5.104 28.664 6.88 33.368 10.432C38.12 13.936 40.496 20.392 40.496 29.8C40.496 39.064 38.192 45.592 33.584 49.384C28.976 53.128 23 55 15.656 55H0.68V5.104H14.576ZM12.488 13.672V46.432H16.376C20.264 46.432 23.216 45.232 25.232 42.832C27.248 40.384 28.256 36.04 28.256 29.8C28.256 25.528 27.752 22.216 26.744 19.864C25.736 17.512 24.368 15.904 22.64 15.04C20.912 14.128 18.776 13.672 16.232 13.672H12.488ZM80.6984 35.128C80.6984 36.712 80.6264 38.08 80.4824 39.232H56.7944C57.1784 42.448 58.0904 44.704 59.5304 46C60.9704 47.296 62.9624 47.944 65.5064 47.944C67.0424 47.944 68.5304 47.68 69.9704 47.152C71.4104 46.576 72.9704 45.712 74.6504 44.56L79.3304 50.896C74.8664 54.448 69.8984 56.224 64.4264 56.224C58.2344 56.224 53.4824 54.4 50.1704 50.752C46.8584 47.104 45.2024 42.208 45.2024 36.064C45.2024 32.176 45.8984 28.696 47.2904 25.624C48.6824 22.504 50.7224 20.056 53.4104 18.28C56.0984 16.456 59.3144 15.544 63.0584 15.544C68.5784 15.544 72.8984 17.272 76.0184 20.728C79.1384 24.184 80.6984 28.984 80.6984 35.128ZM69.5384 31.888C69.4424 26.032 67.3784 23.104 63.3464 23.104C61.3784 23.104 59.8424 23.824 58.7384 25.264C57.6824 26.704 57.0344 29.08 56.7944 32.392H69.5384V31.888ZM100.553 15.544C103.289 15.544 105.857 15.952 108.257 16.768C110.657 17.584 112.769 18.736 114.593 20.224L110.417 26.632C107.297 24.664 104.153 23.68 100.985 23.68C99.497 23.68 98.345 23.944 97.529 24.472C96.761 24.952 96.377 25.648 96.377 26.56C96.377 27.28 96.545 27.88 96.881 28.36C97.265 28.792 98.009 29.248 99.113 29.728C100.217 30.208 101.921 30.784 104.225 31.456C108.209 32.608 111.161 34.12 113.081 35.992C115.049 37.816 116.033 40.36 116.033 43.624C116.033 46.216 115.289 48.472 113.801 50.392C112.313 52.264 110.273 53.704 107.681 54.712C105.089 55.72 102.209 56.224 99.041 56.224C95.825 56.224 92.825 55.72 90.041 54.712C87.305 53.704 84.977 52.312 83.057 50.536L88.601 44.344C91.817 46.84 95.201 48.088 98.753 48.088C100.481 48.088 101.825 47.776 102.785 47.152C103.793 46.528 104.297 45.64 104.297 44.488C104.297 43.576 104.105 42.856 103.721 42.328C103.337 41.8 102.593 41.32 101.489 40.888C100.385 40.408 98.633 39.832 96.233 39.16C92.441 38.056 89.609 36.52 87.737 34.552C85.865 32.584 84.929 30.136 84.929 27.208C84.929 25 85.553 23.032 86.801 21.304C88.097 19.528 89.921 18.136 92.273 17.128C94.673 16.072 97.433 15.544 100.553 15.544ZM155.23 35.128C155.23 36.712 155.158 38.08 155.014 39.232H131.326C131.71 42.448 132.622 44.704 134.062 46C135.502 47.296 137.494 47.944 140.038 47.944C141.574 47.944 143.062 47.68 144.502 47.152C145.942 46.576 147.502 45.712 149.182 44.56L153.862 50.896C149.398 54.448 144.43 56.224 138.958 56.224C132.766 56.224 128.014 54.4 124.702 50.752C121.39 47.104 119.734 42.208 119.734 36.064C119.734 32.176 120.43 28.696 121.822 25.624C123.214 22.504 125.254 20.056 127.942 18.28C130.63 16.456 133.846 15.544 137.59 15.544C143.11 15.544 147.43 17.272 150.55 20.728C153.67 24.184 155.23 28.984 155.23 35.128ZM144.07 31.888C143.974 26.032 141.91 23.104 137.878 23.104C135.91 23.104 134.374 23.824 133.27 25.264C132.214 26.704 131.566 29.08 131.326 32.392H144.07V31.888ZM184.012 15.544C187.324 15.544 189.916 16.552 191.788 18.568C193.66 20.584 194.596 23.416 194.596 27.064V55H183.22V29.008C183.22 27.088 182.908 25.768 182.284 25.048C181.708 24.28 180.82 23.896 179.62 23.896C177.316 23.896 175.108 25.552 172.996 28.864V55H161.62V16.768H171.556L172.348 21.304C173.98 19.384 175.732 17.944 177.604 16.984C179.524 16.024 181.66 15.544 184.012 15.544ZM235.657 16.768L223.633 55H210.169L197.857 16.768H210.241L217.009 46.36L224.065 16.768H235.657ZM255.665 15.544C261.521 15.544 266.105 17.344 269.417 20.944C272.729 24.496 274.385 29.488 274.385 35.92C274.385 40 273.617 43.576 272.081 46.648C270.593 49.672 268.433 52.024 265.601 53.704C262.817 55.384 259.505 56.224 255.665 56.224C249.857 56.224 245.273 54.448 241.913 50.896C238.601 47.296 236.945 42.28 236.945 35.848C236.945 31.768 237.689 28.216 239.177 25.192C240.713 22.12 242.873 19.744 245.657 18.064C248.489 16.384 251.825 15.544 255.665 15.544ZM255.665 23.896C253.361 23.896 251.633 24.88 250.481 26.848C249.329 28.768 248.753 31.768 248.753 35.848C248.753 40.024 249.305 43.072 250.409 44.992C251.561 46.912 253.313 47.872 255.665 47.872C257.969 47.872 259.697 46.912 260.849 44.992C262.001 43.024 262.577 40 262.577 35.92C262.577 31.744 262.001 28.696 260.849 26.776C259.745 24.856 258.017 23.896 255.665 23.896ZM291.304 56.224C287.992 56.224 285.4 55.288 283.528 53.416C281.704 51.496 280.792 48.784 280.792 45.28V1.576L292.168 0.351995V44.848C292.168 46.432 292.816 47.224 294.112 47.224C294.784 47.224 295.408 47.104 295.984 46.864L298.216 54.928C296.152 55.792 293.848 56.224 291.304 56.224ZM334.727 16.768L322.703 55H309.239L296.927 16.768H309.311L316.079 46.36L323.135 16.768H334.727ZM371.511 35.128C371.511 36.712 371.439 38.08 371.295 39.232H347.607C347.991 42.448 348.903 44.704 350.343 46C351.783 47.296 353.775 47.944 356.319 47.944C357.855 47.944 359.343 47.68 360.783 47.152C362.223 46.576 363.783 45.712 365.463 44.56L370.143 50.896C365.679 54.448 360.711 56.224 355.239 56.224C349.047 56.224 344.295 54.4 340.983 50.752C337.671 47.104 336.015 42.208 336.015 36.064C336.015 32.176 336.711 28.696 338.103 25.624C339.495 22.504 341.535 20.056 344.223 18.28C346.911 16.456 350.127 15.544 353.871 15.544C359.391 15.544 363.711 17.272 366.831 20.728C369.951 24.184 371.511 28.984 371.511 35.128ZM360.351 31.888C360.255 26.032 358.191 23.104 354.159 23.104C352.191 23.104 350.655 23.824 349.551 25.264C348.495 26.704 347.847 29.08 347.607 32.392H360.351V31.888ZM412.174 1.576V55H402.094L401.518 50.536C398.83 54.328 395.206 56.224 390.646 56.224C385.894 56.224 382.27 54.4 379.774 50.752C377.326 47.104 376.102 42.112 376.102 35.776C376.102 31.888 376.75 28.408 378.046 25.336C379.342 22.264 381.166 19.864 383.518 18.136C385.918 16.408 388.654 15.544 391.726 15.544C395.374 15.544 398.398 16.744 400.798 19.144V0.351995L412.174 1.576ZM394.174 47.872C396.814 47.872 399.022 46.432 400.798 43.552V27.064C399.886 25.96 398.95 25.144 397.99 24.616C397.078 24.088 396.022 23.824 394.822 23.824C392.71 23.824 391.03 24.808 389.782 26.776C388.534 28.744 387.91 31.768 387.91 35.848C387.91 40.312 388.438 43.432 389.494 45.208C390.598 46.984 392.158 47.872 394.174 47.872ZM437.633 15.544C443.489 15.544 448.073 17.344 451.385 20.944C454.697 24.496 456.353 29.488 456.353 35.92C456.353 40 455.585 43.576 454.049 46.648C452.561 49.672 450.401 52.024 447.569 53.704C444.785 55.384 441.473 56.224 437.633 56.224C431.825 56.224 427.241 54.448 423.881 50.896C420.569 47.296 418.913 42.28 418.913 35.848C418.913 31.768 419.657 28.216 421.145 25.192C422.681 22.12 424.841 19.744 427.625 18.064C430.457 16.384 433.793 15.544 437.633 15.544ZM437.633 23.896C435.329 23.896 433.601 24.88 432.449 26.848C431.297 28.768 430.721 31.768 430.721 35.848C430.721 40.024 431.273 43.072 432.377 44.992C433.529 46.912 435.281 47.872 437.633 47.872C439.937 47.872 441.665 46.912 442.817 44.992C443.969 43.024 444.545 40 444.545 35.92C444.545 31.744 443.969 28.696 442.817 26.776C441.713 24.856 439.985 23.896 437.633 23.896ZM483.856 15.688C485.248 15.688 486.52 15.856 487.672 16.192L485.872 27.208C484.432 26.872 483.28 26.704 482.416 26.704C480.16 26.704 478.432 27.496 477.232 29.08C476.08 30.616 475.168 32.944 474.496 36.064V55H463.12V16.768H473.056L473.992 24.184C474.856 21.544 476.152 19.48 477.88 17.992C479.656 16.456 481.648 15.688 483.856 15.688ZM0.68 135V85.104H30.416L29.192 93.528H12.488V106.776H27.032V115.2H12.488V135H0.68ZM53.7547 95.688C55.1467 95.688 56.4187 95.856 57.5707 96.192L55.7707 107.208C54.3307 106.872 53.1787 106.704 52.3147 106.704C50.0587 106.704 48.3307 107.496 47.1307 109.08C45.9787 110.616 45.0667 112.944 44.3947 116.064V135H33.0187V96.768H42.9547L43.8907 104.184C44.7547 101.544 46.0507 99.48 47.7787 97.992C49.5547 96.456 51.5467 95.688 53.7547 95.688ZM76.2974 95.544C82.1534 95.544 86.7374 97.344 90.0494 100.944C93.3614 104.496 95.0174 109.488 95.0174 115.92C95.0174 120 94.2494 123.576 92.7134 126.648C91.2254 129.672 89.0654 132.024 86.2334 133.704C83.4494 135.384 80.1374 136.224 76.2974 136.224C70.4894 136.224 65.9054 134.448 62.5454 130.896C59.2334 127.296 57.5774 122.28 57.5774 115.848C57.5774 111.768 58.3214 108.216 59.8094 105.192C61.3454 102.12 63.5054 99.744 66.2894 98.064C69.1214 96.384 72.4574 95.544 76.2974 95.544ZM76.2974 103.896C73.9934 103.896 72.2654 104.88 71.1134 106.848C69.9614 108.768 69.3854 111.768 69.3854 115.848C69.3854 120.024 69.9374 123.072 71.0414 124.992C72.1934 126.912 73.9454 127.872 76.2974 127.872C78.6014 127.872 80.3294 126.912 81.4814 124.992C82.6334 123.024 83.2094 120 83.2094 115.92C83.2094 111.744 82.6334 108.696 81.4814 106.776C80.3774 104.856 78.6494 103.896 76.2974 103.896ZM124.176 95.544C127.488 95.544 130.08 96.552 131.952 98.568C133.824 100.584 134.76 103.416 134.76 107.064V135H123.384V109.008C123.384 107.088 123.072 105.768 122.448 105.048C121.872 104.28 120.984 103.896 119.784 103.896C117.48 103.896 115.272 105.552 113.16 108.864V135H101.784V96.768H111.72L112.512 101.304C114.144 99.384 115.896 97.944 117.768 96.984C119.688 96.024 121.824 95.544 124.176 95.544ZM167.315 133.2C165.923 134.16 164.291 134.904 162.419 135.432C160.595 135.96 158.771 136.224 156.947 136.224C148.595 136.176 144.419 131.568 144.419 122.4V104.688H139.019V96.768H144.419V88.488L155.795 87.192V96.768H164.579L163.355 104.688H155.795V122.256C155.795 124.032 156.083 125.304 156.659 126.072C157.235 126.84 158.147 127.224 159.395 127.224C160.691 127.224 162.059 126.816 163.499 126L167.315 133.2ZM166.934 116.856V108.072H189.902V116.856H166.934ZM228.366 85.104L227.142 93.528H209.574V105.48H224.91V113.76H209.574V126.504H228.366V135H197.766V85.104H228.366ZM257.137 95.544C260.449 95.544 263.041 96.552 264.913 98.568C266.785 100.584 267.721 103.416 267.721 107.064V135H256.345V109.008C256.345 107.088 256.033 105.768 255.409 105.048C254.833 104.28 253.945 103.896 252.745 103.896C250.441 103.896 248.233 105.552 246.121 108.864V135H234.745V96.768H244.681L245.473 101.304C247.105 99.384 248.857 97.944 250.729 96.984C252.649 96.024 254.785 95.544 257.137 95.544ZM310.572 81.576V135H300.492L299.916 130.536C297.228 134.328 293.604 136.224 289.044 136.224C284.292 136.224 280.668 134.4 278.172 130.752C275.724 127.104 274.5 122.112 274.5 115.776C274.5 111.888 275.148 108.408 276.444 105.336C277.74 102.264 279.564 99.864 281.916 98.136C284.316 96.408 287.052 95.544 290.124 95.544C293.772 95.544 296.796 96.744 299.196 99.144V80.352L310.572 81.576ZM292.572 127.872C295.212 127.872 297.42 126.432 299.196 123.552V107.064C298.284 105.96 297.348 105.144 296.388 104.616C295.476 104.088 294.42 103.824 293.22 103.824C291.108 103.824 289.428 104.808 288.18 106.776C286.932 108.744 286.308 111.768 286.308 115.848C286.308 120.312 286.836 123.432 287.892 125.208C288.996 126.984 290.556 127.872 292.572 127.872ZM350.526 127.44C350.526 131.424 349.806 134.712 348.366 137.304C346.974 139.896 345.102 141.912 342.75 143.352C340.446 144.84 337.686 146.112 334.47 147.168L331.302 138.816C333.414 138 334.998 137.064 336.054 136.008C337.11 134.952 337.806 133.728 338.142 132.336C338.526 130.944 338.718 129.168 338.718 127.008V85.104H350.526V127.44ZM391.665 135H381.801L381.297 130.176C378.513 134.208 374.649 136.224 369.705 136.224C366.201 136.224 363.537 135.168 361.713 133.056C359.937 130.944 359.049 127.992 359.049 124.2V96.768H370.425V122.76C370.425 124.632 370.713 125.952 371.289 126.72C371.913 127.44 372.849 127.8 374.097 127.8C376.497 127.8 378.561 126.312 380.289 123.336V96.768H391.665V135ZM380.577 74.88L385.041 83.376L368.049 90.216L364.881 84.384L380.577 74.88ZM423.004 95.544C426.316 95.544 428.908 96.552 430.78 98.568C432.652 100.584 433.588 103.416 433.588 107.064V135H422.212V109.008C422.212 107.088 421.9 105.768 421.276 105.048C420.7 104.28 419.812 103.896 418.612 103.896C416.308 103.896 414.1 105.552 411.988 108.864V135H400.612V96.768H410.548L411.34 101.304C412.972 99.384 414.724 97.944 416.596 96.984C418.516 96.024 420.652 95.544 423.004 95.544ZM453.543 96.768V135H442.167V96.768H453.543ZM447.783 76.608C449.751 76.608 451.359 77.232 452.607 78.48C453.903 79.68 454.551 81.216 454.551 83.088C454.551 84.96 453.903 86.52 452.607 87.768C451.359 88.968 449.751 89.568 447.783 89.568C445.815 89.568 444.207 88.968 442.959 87.768C441.711 86.52 441.087 84.96 441.087 83.088C441.087 81.216 441.711 79.68 442.959 78.48C444.207 77.232 445.815 76.608 447.783 76.608ZM479.047 95.544C484.903 95.544 489.487 97.344 492.799 100.944C496.111 104.496 497.767 109.488 497.767 115.92C497.767 120 496.999 123.576 495.463 126.648C493.975 129.672 491.815 132.024 488.983 133.704C486.199 135.384 482.887 136.224 479.047 136.224C473.239 136.224 468.655 134.448 465.295 130.896C461.983 127.296 460.327 122.28 460.327 115.848C460.327 111.768 461.071 108.216 462.559 105.192C464.095 102.12 466.255 99.744 469.039 98.064C471.871 96.384 475.207 95.544 479.047 95.544ZM479.047 103.896C476.743 103.896 475.015 104.88 473.863 106.848C472.711 108.768 472.135 111.768 472.135 115.848C472.135 120.024 472.687 123.072 473.791 124.992C474.943 126.912 476.695 127.872 479.047 127.872C481.351 127.872 483.079 126.912 484.231 124.992C485.383 123.024 485.959 120 485.959 115.92C485.959 111.744 485.383 108.696 484.231 106.776C483.127 104.856 481.399 103.896 479.047 103.896ZM525.27 95.688C526.662 95.688 527.934 95.856 529.086 96.192L527.286 107.208C525.846 106.872 524.694 106.704 523.83 106.704C521.574 106.704 519.846 107.496 518.646 109.08C517.494 110.616 516.582 112.944 515.91 116.064V135H504.534V96.768H514.47L515.406 104.184C516.27 101.544 517.566 99.48 519.294 97.992C521.07 96.456 523.062 95.688 525.27 95.688Z" fill="#292929"/>
</svg>
