<svg width="345" height="59" viewBox="0 0 345 59" fill="none" xmlns="http://www.w3.org/2000/svg">
<path d="M25.6695 15.42L24.6495 22.44H10.0095V32.4H22.7895V39.3H10.0095V49.92H25.6695V57H0.169532V15.42H25.6695ZM50.9516 34.56L62.9516 57H52.2116L45.0716 41.16L38.0516 57H27.6116L39.2516 34.92L28.5116 15.42H39.1916L45.1916 28.74L51.4916 15.42H61.9316L50.9516 34.56ZM80.0548 15.42C85.5348 15.42 89.7948 16.56 92.8348 18.84C95.8748 21.12 97.3948 24.5 97.3948 28.98C97.3948 33.66 95.8948 37.2 92.8948 39.6C89.9348 41.96 85.9548 43.14 80.9548 43.14H76.4548V57H66.6148V15.42H80.0548ZM80.1148 36.06C82.4348 36.06 84.1948 35.52 85.3948 34.44C86.6348 33.32 87.2548 31.5 87.2548 28.98C87.2548 24.62 84.8148 22.44 79.9348 22.44H76.4548V36.06H80.1148ZM128.091 15.42L127.071 22.44H112.431V32.4H125.211V39.3H112.431V49.92H128.091V57H102.591V15.42H128.091ZM147.853 41.1H144.013V57H134.173V15.42H147.793C153.473 15.42 157.733 16.46 160.573 18.54C163.453 20.62 164.893 23.8 164.893 28.08C164.893 30.76 164.253 33 162.973 34.8C161.693 36.56 159.673 38.06 156.913 39.3L167.473 57H156.373L147.853 41.1ZM144.013 34.32H148.153C150.353 34.32 151.993 33.82 153.073 32.82C154.193 31.82 154.753 30.24 154.753 28.08C154.753 26.08 154.153 24.62 152.953 23.7C151.793 22.78 149.993 22.32 147.553 22.32H144.013V34.32ZM181.045 15.42V57H171.205V15.42H181.045ZM214.283 15.42L213.263 22.44H198.623V32.4H211.403V39.3H198.623V49.92H214.283V57H188.783V15.42H214.283ZM193.643 11.7L190.223 7.8L198.743 0.0599964H204.503L212.963 7.8L209.603 11.7L201.623 6.66L193.643 11.7ZM252.405 57H239.865L227.865 24.78C228.265 27.94 228.565 30.74 228.765 33.18C229.005 35.58 229.125 38.44 229.125 41.76V57H220.365V15.42H232.605L244.905 47.7C244.025 42.22 243.585 37.06 243.585 32.22V15.42H252.405V57ZM277.13 14.4C279.73 14.4 282.03 14.78 284.03 15.54C286.07 16.3 287.99 17.44 289.79 18.96L285.11 24.54C283.87 23.58 282.65 22.86 281.45 22.38C280.25 21.9 278.97 21.66 277.61 21.66C274.81 21.66 272.59 22.84 270.95 25.2C269.35 27.56 268.55 31.2 268.55 36.12C268.55 40.96 269.35 44.56 270.95 46.92C272.59 49.24 274.85 50.4 277.73 50.4C279.25 50.4 280.63 50.12 281.87 49.56C283.11 48.96 284.45 48.12 285.89 47.04L290.27 52.68C288.71 54.24 286.81 55.52 284.57 56.52C282.37 57.52 279.93 58.02 277.25 58.02C273.41 58.02 270.07 57.18 267.23 55.5C264.39 53.82 262.17 51.34 260.57 48.06C259.01 44.74 258.23 40.76 258.23 36.12C258.23 31.6 259.03 27.7 260.63 24.42C262.27 21.14 264.51 18.66 267.35 16.98C270.23 15.26 273.49 14.4 277.13 14.4ZM304.502 15.42V57H294.662V15.42H304.502ZM334.14 57L331.98 48.06H319.86L317.76 57H307.56L320.1 15.42H332.04L344.58 57H334.14ZM321.54 40.92H330.3L325.92 22.56L321.54 40.92Z" fill="#E0E0E0"/>
</svg>
