<svg width="295" height="72" viewBox="0 0 295 72" fill="none" xmlns="http://www.w3.org/2000/svg">
<path d="M0.9 56V14.42H25.68L24.66 21.44H10.74V32.48H22.86V39.5H10.74V56H0.9ZM45.825 13.4C51.745 13.4 56.345 15.3 59.625 19.1C62.945 22.9 64.605 28.26 64.605 35.18C64.605 39.7 63.845 43.6 62.325 46.88C60.845 50.16 58.685 52.68 55.845 54.44C53.045 56.16 49.705 57.02 45.825 57.02C41.945 57.02 38.605 56.16 35.805 54.44C33.005 52.72 30.845 50.24 29.325 47C27.845 43.72 27.105 39.78 27.105 35.18C27.105 30.7 27.845 26.82 29.325 23.54C30.845 20.26 33.005 17.76 35.805 16.04C38.605 14.28 41.945 13.4 45.825 13.4ZM45.825 20.6C42.985 20.6 40.865 21.76 39.465 24.08C38.105 26.36 37.425 30.06 37.425 35.18C37.425 40.3 38.125 44.02 39.525 46.34C40.925 48.66 43.025 49.82 45.825 49.82C48.705 49.82 50.825 48.68 52.185 46.4C53.585 44.08 54.285 40.34 54.285 35.18C54.285 30.02 53.585 26.3 52.185 24.02C50.785 21.74 48.665 20.6 45.825 20.6ZM84.1894 40.1H80.3494V56H70.5094V14.42H84.1294C89.8094 14.42 94.0694 15.46 96.9094 17.54C99.7894 19.62 101.229 22.8 101.229 27.08C101.229 29.76 100.589 32 99.3094 33.8C98.0294 35.56 96.0094 37.06 93.2494 38.3L103.809 56H92.7094L84.1894 40.1ZM80.3494 33.32H84.4894C86.6894 33.32 88.3294 32.82 89.4094 31.82C90.5294 30.82 91.0894 29.24 91.0894 27.08C91.0894 25.08 90.4894 23.62 89.2894 22.7C88.1294 21.78 86.3294 21.32 83.8894 21.32H80.3494V33.32ZM148.821 56H139.161L138.441 39.74C138.241 35.86 138.141 32.4 138.141 29.36C138.141 27.04 138.201 24.84 138.321 22.76L131.901 51.62H122.601L115.761 22.76C116.001 26.24 116.121 29.52 116.121 32.6C116.121 34.92 116.061 37.34 115.941 39.86L115.221 56H105.621L108.741 14.42H121.161L127.401 42.62L133.221 14.42H145.701L148.821 56ZM176.609 56L174.449 47.06H162.329L160.229 56H150.029L162.569 14.42H174.509L187.049 56H176.609ZM164.009 39.92H172.769L168.389 21.56L164.009 39.92ZM208.593 58.88C210.713 59.12 212.273 59.74 213.273 60.74C214.313 61.78 214.833 63.14 214.833 64.82C214.833 66.86 214.013 68.52 212.373 69.8C210.773 71.08 208.613 71.72 205.893 71.72C204.533 71.72 203.273 71.54 202.113 71.18C200.953 70.86 199.973 70.44 199.173 69.92L201.333 65.54C202.693 66.22 203.973 66.56 205.173 66.56C207.053 66.56 207.993 65.96 207.993 64.76C207.993 64.04 207.553 63.52 206.673 63.2C205.793 62.88 204.393 62.72 202.473 62.72L203.193 56.78C198.353 56.06 194.533 53.84 191.733 50.12C188.973 46.36 187.593 41.36 187.593 35.12C187.593 30.6 188.393 26.7 189.993 23.42C191.633 20.14 193.873 17.66 196.713 15.98C199.593 14.26 202.853 13.4 206.493 13.4C209.093 13.4 211.393 13.78 213.393 14.54C215.433 15.3 217.353 16.44 219.153 17.96L214.473 23.54C213.233 22.58 212.013 21.86 210.813 21.38C209.613 20.9 208.333 20.66 206.973 20.66C204.173 20.66 201.953 21.84 200.313 24.2C198.713 26.56 197.913 30.2 197.913 35.12C197.913 39.96 198.713 43.56 200.313 45.92C201.953 48.24 204.213 49.4 207.093 49.4C208.613 49.4 209.993 49.12 211.233 48.56C212.473 47.96 213.813 47.12 215.253 46.04L219.633 51.68C218.273 53.04 216.653 54.2 214.773 55.16C212.893 56.08 210.833 56.66 208.593 56.9V58.88ZM245.925 56L243.765 47.06H231.645L229.545 56H219.345L231.885 14.42H243.825L256.365 56H245.925ZM233.325 39.92H242.085L237.705 21.56L233.325 39.92ZM241.365 10.34C240.485 10.34 239.725 10.2 239.085 9.92C238.445 9.64 237.745 9.24 236.985 8.72C235.985 8 235.165 7.64 234.525 7.64C233.845 7.64 233.265 7.86 232.785 8.3C232.345 8.7 231.865 9.36 231.345 10.28L226.605 8C227.405 5.92 228.465 4.22 229.785 2.9C231.145 1.58 232.665 0.919997 234.345 0.919997C235.265 0.919997 236.045 1.08 236.685 1.4C237.365 1.68 238.105 2.08 238.905 2.6C239.465 2.96 239.905 3.22 240.225 3.38C240.585 3.54 240.945 3.62 241.305 3.62C241.945 3.62 242.485 3.42 242.925 3.02C243.405 2.58 243.905 1.9 244.425 0.979997L249.165 3.32C248.325 5.44 247.225 7.14 245.865 8.42C244.545 9.7 243.045 10.34 241.365 10.34ZM275.63 13.4C281.55 13.4 286.15 15.3 289.43 19.1C292.75 22.9 294.41 28.26 294.41 35.18C294.41 39.7 293.65 43.6 292.13 46.88C290.65 50.16 288.49 52.68 285.65 54.44C282.85 56.16 279.51 57.02 275.63 57.02C271.75 57.02 268.41 56.16 265.61 54.44C262.81 52.72 260.65 50.24 259.13 47C257.65 43.72 256.91 39.78 256.91 35.18C256.91 30.7 257.65 26.82 259.13 23.54C260.65 20.26 262.81 17.76 265.61 16.04C268.41 14.28 271.75 13.4 275.63 13.4ZM275.63 20.6C272.79 20.6 270.67 21.76 269.27 24.08C267.91 26.36 267.23 30.06 267.23 35.18C267.23 40.3 267.93 44.02 269.33 46.34C270.73 48.66 272.83 49.82 275.63 49.82C278.51 49.82 280.63 48.68 281.99 46.4C283.39 44.08 284.09 40.34 284.09 35.18C284.09 30.02 283.39 26.3 281.99 24.02C280.59 21.74 278.47 20.6 275.63 20.6Z" fill="black"/>
</svg>
