<svg width="701" height="50" viewBox="0 0 701 50" fill="none" xmlns="http://www.w3.org/2000/svg">
<path d="M13.288 35.96C13.288 38.616 12.808 40.808 11.848 42.536C10.92 44.264 9.67202 45.608 8.10402 46.568C6.56802 47.56 4.72802 48.408 2.58402 49.112L0.472015 43.544C1.88002 43 2.93602 42.376 3.64002 41.672C4.34402 40.968 4.80802 40.152 5.03202 39.224C5.28802 38.296 5.41602 37.112 5.41602 35.672V7.73598H13.288V35.96Z" fill="#141414"/>
<path d="M30.2504 14.696C34.1544 14.696 37.2104 15.896 39.4184 18.296C41.6264 20.664 42.7304 23.992 42.7304 28.28C42.7304 31 42.2184 33.384 41.1944 35.432C40.2024 37.448 38.7624 39.016 36.8744 40.136C35.0184 41.256 32.8104 41.816 30.2504 41.816C26.3784 41.816 23.3224 40.632 21.0824 38.264C18.8744 35.864 17.7704 32.52 17.7704 28.232C17.7704 25.512 18.2664 23.144 19.2584 21.128C20.2824 19.08 21.7224 17.496 23.5784 16.376C25.4664 15.256 27.6904 14.696 30.2504 14.696ZM30.2504 20.264C28.7144 20.264 27.5624 20.92 26.7944 22.232C26.0264 23.512 25.6424 25.512 25.6424 28.232C25.6424 31.016 26.0104 33.048 26.7464 34.328C27.5144 35.608 28.6824 36.248 30.2504 36.248C31.7864 36.248 32.9384 35.608 33.7064 34.328C34.4744 33.016 34.8584 31 34.8584 28.28C34.8584 25.496 34.4744 23.464 33.7064 22.184C32.9704 20.904 31.8184 20.264 30.2504 20.264Z" fill="#141414"/>
<path d="M56.2176 14.696C58.0416 14.696 59.7536 14.968 61.3536 15.512C62.9536 16.056 64.3616 16.824 65.5776 17.816L62.7936 22.088C60.7136 20.776 58.6176 20.12 56.5056 20.12C55.5136 20.12 54.7456 20.296 54.2016 20.648C53.6896 20.968 53.4336 21.432 53.4336 22.04C53.4336 22.52 53.5456 22.92 53.7696 23.24C54.0256 23.528 54.5216 23.832 55.2576 24.152C55.9936 24.472 57.1296 24.856 58.6656 25.304C61.3216 26.072 63.2896 27.08 64.5696 28.328C65.8816 29.544 66.5376 31.24 66.5376 33.416C66.5376 35.144 66.0416 36.648 65.0496 37.928C64.0576 39.176 62.6976 40.136 60.9696 40.808C59.2416 41.48 57.3216 41.816 55.2096 41.816C53.0656 41.816 51.0656 41.48 49.2096 40.808C47.3856 40.136 45.8336 39.208 44.5536 38.024L48.2496 33.896C50.3936 35.56 52.6496 36.392 55.0176 36.392C56.1696 36.392 57.0656 36.184 57.7056 35.768C58.3776 35.352 58.7136 34.76 58.7136 33.992C58.7136 33.384 58.5856 32.904 58.3296 32.552C58.0736 32.2 57.5776 31.88 56.8416 31.592C56.1056 31.272 54.9376 30.888 53.3376 30.44C50.8096 29.704 48.9216 28.68 47.6736 27.368C46.4256 26.056 45.8016 24.424 45.8016 22.472C45.8016 21 46.2176 19.688 47.0496 18.536C47.9136 17.352 49.1296 16.424 50.6976 15.752C52.2976 15.048 54.1376 14.696 56.2176 14.696Z" fill="#141414"/>
<path d="M92.6688 27.752C92.6688 28.808 92.6208 29.72 92.5248 30.488H76.7328C76.9888 32.632 77.5968 34.136 78.5568 35C79.5168 35.864 80.8448 36.296 82.5408 36.296C83.5648 36.296 84.5568 36.12 85.5168 35.768C86.4768 35.384 87.5168 34.808 88.6368 34.04L91.7568 38.264C88.7808 40.632 85.4688 41.816 81.8208 41.816C77.6928 41.816 74.5248 40.6 72.3168 38.168C70.1088 35.736 69.0048 32.472 69.0048 28.376C69.0048 25.784 69.4688 23.464 70.3968 21.416C71.3248 19.336 72.6848 17.704 74.4768 16.52C76.2688 15.304 78.4128 14.696 80.9088 14.696C84.5888 14.696 87.4688 15.848 89.5488 18.152C91.6288 20.456 92.6688 23.656 92.6688 27.752ZM85.2288 25.592C85.1648 21.688 83.7888 19.736 81.1008 19.736C79.7888 19.736 78.7648 20.216 78.0288 21.176C77.3248 22.136 76.8928 23.72 76.7328 25.928H85.2288V25.592ZM84.5088 0.919983L87.4848 6.58398L76.1568 11.144L74.0448 7.25598L84.5088 0.919983Z" fill="#141414"/>
<path d="M108.464 41V7.73598H128.288L127.472 13.352H116.336V22.184H126.032V27.8H116.336V41H108.464Z" fill="#141414"/>
<path d="M152.247 27.752C152.247 28.808 152.199 29.72 152.103 30.488H136.311C136.567 32.632 137.175 34.136 138.135 35C139.095 35.864 140.423 36.296 142.119 36.296C143.143 36.296 144.135 36.12 145.095 35.768C146.055 35.384 147.095 34.808 148.215 34.04L151.335 38.264C148.359 40.632 145.047 41.816 141.399 41.816C137.271 41.816 134.103 40.6 131.895 38.168C129.687 35.736 128.583 32.472 128.583 28.376C128.583 25.784 129.047 23.464 129.975 21.416C130.903 19.336 132.263 17.704 134.055 16.52C135.847 15.304 137.991 14.696 140.487 14.696C144.167 14.696 147.047 15.848 149.127 18.152C151.207 20.456 152.247 23.656 152.247 27.752ZM144.807 25.592C144.743 21.688 143.367 19.736 140.679 19.736C139.367 19.736 138.343 20.216 137.607 21.176C136.903 22.136 136.471 23.72 136.311 25.928H144.807V25.592Z" fill="#141414"/>
<path d="M170.331 14.792C171.259 14.792 172.107 14.904 172.875 15.128L171.675 22.472C170.715 22.248 169.947 22.136 169.371 22.136C167.867 22.136 166.715 22.664 165.915 23.72C165.147 24.744 164.539 26.296 164.091 28.376V41H156.507V15.512H163.131L163.755 20.456C164.331 18.696 165.195 17.32 166.347 16.328C167.531 15.304 168.859 14.792 170.331 14.792Z" fill="#141414"/>
<path d="M190.701 14.696C192.909 14.696 194.637 15.368 195.885 16.712C197.133 18.056 197.757 19.944 197.757 22.376V41H190.173V23.672C190.173 22.392 189.965 21.512 189.549 21.032C189.165 20.52 188.573 20.264 187.773 20.264C186.237 20.264 184.765 21.368 183.357 23.576V41H175.773V15.512H182.397L182.925 18.536C184.013 17.256 185.181 16.296 186.429 15.656C187.709 15.016 189.133 14.696 190.701 14.696Z" fill="#141414"/>
<path d="M223.732 33.608C223.732 34.568 223.86 35.272 224.116 35.72C224.404 36.168 224.852 36.504 225.46 36.728L223.876 41.672C222.308 41.544 221.028 41.208 220.036 40.664C219.044 40.088 218.276 39.192 217.732 37.976C216.068 40.536 213.508 41.816 210.052 41.816C207.524 41.816 205.508 41.08 204.004 39.608C202.5 38.136 201.748 36.216 201.748 33.848C201.748 31.064 202.772 28.936 204.82 27.464C206.868 25.992 209.828 25.256 213.7 25.256H216.292V24.152C216.292 22.648 215.972 21.624 215.332 21.08C214.692 20.504 213.572 20.216 211.972 20.216C211.14 20.216 210.132 20.344 208.948 20.6C207.764 20.824 206.548 21.144 205.3 21.56L203.572 16.568C205.172 15.96 206.804 15.496 208.468 15.176C210.164 14.856 211.732 14.696 213.172 14.696C216.82 14.696 219.492 15.448 221.188 16.952C222.884 18.456 223.732 20.712 223.732 23.72V33.608ZM212.26 36.392C213.988 36.392 215.332 35.576 216.292 33.944V29.432H214.42C212.692 29.432 211.396 29.736 210.532 30.344C209.7 30.952 209.284 31.896 209.284 33.176C209.284 34.2 209.54 35 210.052 35.576C210.596 36.12 211.332 36.392 212.26 36.392Z" fill="#141414"/>
<path d="M244.701 14.696C246.909 14.696 248.637 15.368 249.885 16.712C251.133 18.056 251.757 19.944 251.757 22.376V41H244.173V23.672C244.173 22.392 243.965 21.512 243.549 21.032C243.165 20.52 242.573 20.264 241.773 20.264C240.237 20.264 238.765 21.368 237.357 23.576V41H229.773V15.512H236.397L236.925 18.536C238.013 17.256 239.181 16.296 240.429 15.656C241.709 15.016 243.133 14.696 244.701 14.696Z" fill="#141414"/>
<path d="M280.324 5.38398V41H273.604L273.22 38.024C271.428 40.552 269.012 41.816 265.972 41.816C262.804 41.816 260.388 40.6 258.724 38.168C257.092 35.736 256.276 32.408 256.276 28.184C256.276 25.592 256.708 23.272 257.572 21.224C258.436 19.176 259.652 17.576 261.22 16.424C262.82 15.272 264.644 14.696 266.692 14.696C269.124 14.696 271.14 15.496 272.74 17.096V4.56798L280.324 5.38398ZM268.324 36.248C270.084 36.248 271.556 35.288 272.74 33.368V22.376C272.132 21.64 271.508 21.096 270.868 20.744C270.26 20.392 269.556 20.216 268.756 20.216C267.348 20.216 266.228 20.872 265.396 22.184C264.564 23.496 264.148 25.512 264.148 28.232C264.148 31.208 264.5 33.288 265.204 34.472C265.94 35.656 266.98 36.248 268.324 36.248Z" fill="#141414"/>
<path d="M308.481 27.752C308.481 28.808 308.433 29.72 308.337 30.488H292.545C292.801 32.632 293.409 34.136 294.369 35C295.329 35.864 296.657 36.296 298.353 36.296C299.377 36.296 300.369 36.12 301.329 35.768C302.289 35.384 303.329 34.808 304.449 34.04L307.569 38.264C304.593 40.632 301.281 41.816 297.633 41.816C293.505 41.816 290.337 40.6 288.129 38.168C285.921 35.736 284.817 32.472 284.817 28.376C284.817 25.784 285.281 23.464 286.209 21.416C287.137 19.336 288.497 17.704 290.289 16.52C292.081 15.304 294.225 14.696 296.721 14.696C300.401 14.696 303.281 15.848 305.361 18.152C307.441 20.456 308.481 23.656 308.481 27.752ZM301.041 25.592C300.977 21.688 299.601 19.736 296.913 19.736C295.601 19.736 294.577 20.216 293.841 21.176C293.137 22.136 292.705 23.72 292.545 25.928H301.041V25.592Z" fill="#141414"/>
<path d="M321.718 14.696C323.542 14.696 325.254 14.968 326.854 15.512C328.454 16.056 329.862 16.824 331.078 17.816L328.294 22.088C326.214 20.776 324.118 20.12 322.006 20.12C321.014 20.12 320.246 20.296 319.702 20.648C319.19 20.968 318.934 21.432 318.934 22.04C318.934 22.52 319.046 22.92 319.27 23.24C319.526 23.528 320.022 23.832 320.758 24.152C321.494 24.472 322.63 24.856 324.166 25.304C326.822 26.072 328.79 27.08 330.07 28.328C331.382 29.544 332.038 31.24 332.038 33.416C332.038 35.144 331.542 36.648 330.55 37.928C329.558 39.176 328.198 40.136 326.47 40.808C324.742 41.48 322.822 41.816 320.71 41.816C318.566 41.816 316.566 41.48 314.71 40.808C312.886 40.136 311.334 39.208 310.054 38.024L313.75 33.896C315.894 35.56 318.15 36.392 320.518 36.392C321.67 36.392 322.566 36.184 323.206 35.768C323.878 35.352 324.214 34.76 324.214 33.992C324.214 33.384 324.086 32.904 323.83 32.552C323.574 32.2 323.078 31.88 322.342 31.592C321.606 31.272 320.438 30.888 318.838 30.44C316.31 29.704 314.422 28.68 313.174 27.368C311.926 26.056 311.302 24.424 311.302 22.472C311.302 21 311.718 19.688 312.55 18.536C313.414 17.352 314.63 16.424 316.198 15.752C317.798 15.048 319.638 14.696 321.718 14.696Z" fill="#141414"/>
<path d="M370.183 5.38398V41H363.463L363.079 38.024C361.287 40.552 358.871 41.816 355.831 41.816C352.663 41.816 350.247 40.6 348.583 38.168C346.951 35.736 346.135 32.408 346.135 28.184C346.135 25.592 346.567 23.272 347.431 21.224C348.295 19.176 349.511 17.576 351.079 16.424C352.679 15.272 354.503 14.696 356.551 14.696C358.983 14.696 360.999 15.496 362.599 17.096V4.56798L370.183 5.38398ZM358.183 36.248C359.943 36.248 361.415 35.288 362.599 33.368V22.376C361.991 21.64 361.367 21.096 360.727 20.744C360.119 20.392 359.415 20.216 358.615 20.216C357.207 20.216 356.087 20.872 355.255 22.184C354.423 23.496 354.007 25.512 354.007 28.232C354.007 31.208 354.359 33.288 355.063 34.472C355.799 35.656 356.839 36.248 358.183 36.248Z" fill="#141414"/>
<path d="M398.341 27.752C398.341 28.808 398.293 29.72 398.197 30.488H382.405C382.661 32.632 383.269 34.136 384.229 35C385.189 35.864 386.517 36.296 388.213 36.296C389.237 36.296 390.229 36.12 391.189 35.768C392.149 35.384 393.189 34.808 394.309 34.04L397.429 38.264C394.453 40.632 391.141 41.816 387.493 41.816C383.365 41.816 380.197 40.6 377.989 38.168C375.781 35.736 374.677 32.472 374.677 28.376C374.677 25.784 375.141 23.464 376.069 21.416C376.997 19.336 378.357 17.704 380.149 16.52C381.941 15.304 384.085 14.696 386.581 14.696C390.261 14.696 393.141 15.848 395.221 18.152C397.301 20.456 398.341 23.656 398.341 27.752ZM390.901 25.592C390.837 21.688 389.461 19.736 386.773 19.736C385.461 19.736 384.437 20.216 383.701 21.176C382.997 22.136 382.565 23.72 382.405 25.928H390.901V25.592Z" fill="#141414"/>
<path d="M414.136 41V7.73598H433.96L433.144 13.352H422.008V22.184H431.704V27.8H422.008V41H414.136Z" fill="#141414"/>
<path d="M449.519 14.792C450.447 14.792 451.295 14.904 452.063 15.128L450.863 22.472C449.903 22.248 449.135 22.136 448.559 22.136C447.055 22.136 445.903 22.664 445.103 23.72C444.335 24.744 443.727 26.296 443.279 28.376V41H435.695V15.512H442.319L442.943 20.456C443.519 18.696 444.383 17.32 445.535 16.328C446.719 15.304 448.047 14.792 449.519 14.792Z" fill="#141414"/>
<path d="M475.731 27.752C475.731 28.808 475.683 29.72 475.587 30.488H459.795C460.051 32.632 460.659 34.136 461.619 35C462.579 35.864 463.907 36.296 465.603 36.296C466.627 36.296 467.619 36.12 468.579 35.768C469.539 35.384 470.579 34.808 471.699 34.04L474.819 38.264C471.843 40.632 468.531 41.816 464.883 41.816C460.755 41.816 457.587 40.6 455.379 38.168C453.171 35.736 452.067 32.472 452.067 28.376C452.067 25.784 452.531 23.464 453.459 21.416C454.387 19.336 455.747 17.704 457.539 16.52C459.331 15.304 461.475 14.696 463.971 14.696C467.651 14.696 470.531 15.848 472.611 18.152C474.691 20.456 475.731 23.656 475.731 27.752ZM468.291 25.592C468.227 21.688 466.851 19.736 464.163 19.736C462.851 19.736 461.827 20.216 461.091 21.176C460.387 22.136 459.955 23.72 459.795 25.928H468.291V25.592Z" fill="#141414"/>
<path d="M487.576 15.512V41H479.992V15.512H487.576ZM483.736 2.07198C485.048 2.07198 486.12 2.48798 486.952 3.31998C487.816 4.11998 488.248 5.14398 488.248 6.39198C488.248 7.63998 487.816 8.67998 486.952 9.51198C486.12 10.312 485.048 10.712 483.736 10.712C482.424 10.712 481.352 10.312 480.52 9.51198C479.688 8.67998 479.272 7.63998 479.272 6.39198C479.272 5.14398 479.688 4.11998 480.52 3.31998C481.352 2.48798 482.424 2.07198 483.736 2.07198Z" fill="#141414"/>
<path d="M509.523 39.8C508.595 40.44 507.507 40.936 506.259 41.288C505.043 41.64 503.827 41.816 502.611 41.816C497.043 41.784 494.259 38.712 494.259 32.6V20.792H490.659V15.512H494.259V9.99198L501.843 9.12798V15.512H507.699L506.883 20.792H501.843V32.504C501.843 33.688 502.035 34.536 502.419 35.048C502.803 35.56 503.411 35.816 504.243 35.816C505.107 35.816 506.019 35.544 506.979 35L509.523 39.8Z" fill="#141414"/>
<path d="M531.748 33.608C531.748 34.568 531.876 35.272 532.132 35.72C532.42 36.168 532.868 36.504 533.476 36.728L531.892 41.672C530.324 41.544 529.044 41.208 528.052 40.664C527.06 40.088 526.292 39.192 525.748 37.976C524.084 40.536 521.524 41.816 518.068 41.816C515.54 41.816 513.524 41.08 512.02 39.608C510.516 38.136 509.764 36.216 509.764 33.848C509.764 31.064 510.788 28.936 512.836 27.464C514.884 25.992 517.844 25.256 521.716 25.256H524.308V24.152C524.308 22.648 523.988 21.624 523.348 21.08C522.708 20.504 521.588 20.216 519.988 20.216C519.156 20.216 518.148 20.344 516.964 20.6C515.78 20.824 514.564 21.144 513.316 21.56L511.588 16.568C513.188 15.96 514.82 15.496 516.484 15.176C518.18 14.856 519.748 14.696 521.188 14.696C524.836 14.696 527.508 15.448 529.204 16.952C530.9 18.456 531.748 20.712 531.748 23.72V33.608ZM520.276 36.392C522.004 36.392 523.348 35.576 524.308 33.944V29.432H522.436C520.708 29.432 519.412 29.736 518.548 30.344C517.716 30.952 517.3 31.896 517.3 33.176C517.3 34.2 517.556 35 518.068 35.576C518.612 36.12 519.348 36.392 520.276 36.392Z" fill="#141414"/>
<path d="M546.296 14.696C548.12 14.696 549.832 14.968 551.432 15.512C553.032 16.056 554.44 16.824 555.656 17.816L552.872 22.088C550.792 20.776 548.696 20.12 546.584 20.12C545.592 20.12 544.824 20.296 544.28 20.648C543.768 20.968 543.512 21.432 543.512 22.04C543.512 22.52 543.624 22.92 543.848 23.24C544.104 23.528 544.6 23.832 545.336 24.152C546.072 24.472 547.208 24.856 548.744 25.304C551.4 26.072 553.368 27.08 554.648 28.328C555.96 29.544 556.616 31.24 556.616 33.416C556.616 35.144 556.12 36.648 555.128 37.928C554.136 39.176 552.776 40.136 551.048 40.808C549.32 41.48 547.4 41.816 545.288 41.816C543.144 41.816 541.144 41.48 539.288 40.808C537.464 40.136 535.912 39.208 534.632 38.024L538.328 33.896C540.472 35.56 542.728 36.392 545.096 36.392C546.248 36.392 547.144 36.184 547.784 35.768C548.456 35.352 548.792 34.76 548.792 33.992C548.792 33.384 548.664 32.904 548.408 32.552C548.152 32.2 547.656 31.88 546.92 31.592C546.184 31.272 545.016 30.888 543.416 30.44C540.888 29.704 539 28.68 537.752 27.368C536.504 26.056 535.88 24.424 535.88 22.472C535.88 21 536.296 19.688 537.128 18.536C537.992 17.352 539.208 16.424 540.776 15.752C542.376 15.048 544.216 14.696 546.296 14.696Z" fill="#141414"/>
<path d="M581.225 35.96C581.225 38.616 580.746 40.808 579.785 42.536C578.858 44.264 577.61 45.608 576.042 46.568C574.506 47.56 572.665 48.408 570.522 49.112L568.41 43.544C569.818 43 570.874 42.376 571.578 41.672C572.282 40.968 572.746 40.152 572.97 39.224C573.225 38.296 573.354 37.112 573.354 35.672V7.73598H581.225V35.96Z" fill="#141414"/>
<path d="M608.652 41H602.076L601.74 37.784C599.884 40.472 597.308 41.816 594.012 41.816C591.676 41.816 589.9 41.112 588.684 39.704C587.5 38.296 586.908 36.328 586.908 33.8V15.512H594.492V32.84C594.492 34.088 594.684 34.968 595.068 35.48C595.484 35.96 596.108 36.2 596.94 36.2C598.54 36.2 599.916 35.208 601.068 33.224V15.512H608.652V41Z" fill="#141414"/>
<path d="M629.545 14.696C631.753 14.696 633.481 15.368 634.729 16.712C635.977 18.056 636.601 19.944 636.601 22.376V41H629.017V23.672C629.017 22.392 628.809 21.512 628.393 21.032C628.009 20.52 627.417 20.264 626.617 20.264C625.081 20.264 623.609 21.368 622.201 23.576V41H614.617V15.512H621.241L621.769 18.536C622.857 17.256 624.025 16.296 625.273 15.656C626.553 15.016 627.977 14.696 629.545 14.696Z" fill="#141414"/>
<path d="M649.904 15.512V41H642.32V15.512H649.904ZM646.064 2.07198C647.376 2.07198 648.448 2.48798 649.28 3.31998C650.144 4.11998 650.576 5.14398 650.576 6.39198C650.576 7.63998 650.144 8.67998 649.28 9.51198C648.448 10.312 647.376 10.712 646.064 10.712C644.752 10.712 643.68 10.312 642.848 9.51198C642.016 8.67998 641.6 7.63998 641.6 6.39198C641.6 5.14398 642.016 4.11998 642.848 3.31998C643.68 2.48798 644.752 2.07198 646.064 2.07198Z" fill="#141414"/>
<path d="M666.907 14.696C670.811 14.696 673.867 15.896 676.075 18.296C678.283 20.664 679.387 23.992 679.387 28.28C679.387 31 678.875 33.384 677.851 35.432C676.859 37.448 675.419 39.016 673.531 40.136C671.675 41.256 669.467 41.816 666.907 41.816C663.035 41.816 659.979 40.632 657.739 38.264C655.531 35.864 654.427 32.52 654.427 28.232C654.427 25.512 654.923 23.144 655.915 21.128C656.939 19.08 658.379 17.496 660.235 16.376C662.123 15.256 664.347 14.696 666.907 14.696ZM666.907 20.264C665.371 20.264 664.219 20.92 663.451 22.232C662.683 23.512 662.299 25.512 662.299 28.232C662.299 31.016 662.667 33.048 663.403 34.328C664.171 35.608 665.339 36.248 666.907 36.248C668.443 36.248 669.595 35.608 670.363 34.328C671.131 33.016 671.515 31 671.515 28.28C671.515 25.496 671.131 23.464 670.363 22.184C669.627 20.904 668.475 20.264 666.907 20.264Z" fill="#141414"/>
<path d="M697.722 14.792C698.65 14.792 699.498 14.904 700.266 15.128L699.066 22.472C698.106 22.248 697.338 22.136 696.762 22.136C695.258 22.136 694.106 22.664 693.306 23.72C692.538 24.744 691.93 26.296 691.482 28.376V41H683.898V15.512H690.522L691.146 20.456C691.722 18.696 692.586 17.32 693.738 16.328C694.922 15.304 696.25 14.792 697.722 14.792Z" fill="#141414"/>
</svg>
