<svg width="200" height="44" viewBox="0 0 200 44" fill="none" xmlns="http://www.w3.org/2000/svg">
<path d="M15.56 0.919998C20.296 0.919998 23.976 2.44 26.6 5.48C29.256 8.52 30.584 12.808 30.584 18.344C30.584 21.96 29.976 25.08 28.76 27.704C27.576 30.328 25.848 32.344 23.576 33.752C21.336 35.128 18.664 35.816 15.56 35.816C12.456 35.816 9.784 35.128 7.544 33.752C5.304 32.376 3.576 30.392 2.36 27.8C1.176 25.176 0.584 22.024 0.584 18.344C0.584 14.76 1.176 11.656 2.36 9.032C3.576 6.408 5.304 4.408 7.544 3.032C9.784 1.624 12.456 0.919998 15.56 0.919998ZM15.56 6.68C13.288 6.68 11.592 7.608 10.472 9.464C9.384 11.288 8.84 14.248 8.84 18.344C8.84 22.44 9.4 25.416 10.52 27.272C11.64 29.128 13.32 30.056 15.56 30.056C17.864 30.056 19.56 29.144 20.648 27.32C21.768 25.464 22.328 22.472 22.328 18.344C22.328 14.216 21.768 11.24 20.648 9.416C19.528 7.592 17.832 6.68 15.56 6.68ZM53.0195 17.384C55.2275 17.8 57.0195 18.616 58.3955 19.832C59.8035 21.048 60.5075 22.872 60.5075 25.304C60.5075 28.856 59.2275 31.368 56.6675 32.84C54.1395 34.28 50.5875 35 46.0115 35H35.3075V1.736H44.7155C49.3875 1.736 52.9555 2.408 55.4195 3.752C57.8835 5.064 59.1155 7.224 59.1155 10.232C59.1155 12.184 58.5235 13.768 57.3395 14.984C56.1875 16.168 54.7475 16.968 53.0195 17.384ZM43.1795 7.304V15.032H46.1075C49.4355 15.032 51.0995 13.688 51.0995 11C51.0995 9.656 50.6515 8.712 49.7555 8.168C48.8595 7.592 47.4355 7.304 45.4835 7.304H43.1795ZM46.0595 29.288C48.1395 29.288 49.7075 28.984 50.7635 28.376C51.8515 27.736 52.3955 26.568 52.3955 24.872C52.3955 21.8 50.4755 20.264 46.6355 20.264H43.1795V29.288H46.0595ZM73.0224 29.96C73.0224 32.616 72.5424 34.808 71.5824 36.536C70.6544 38.264 69.4064 39.608 67.8384 40.568C66.3024 41.56 64.4624 42.408 62.3184 43.112L60.2064 37.544C61.6144 37 62.6704 36.376 63.3744 35.672C64.0784 34.968 64.5424 34.152 64.7664 33.224C65.0224 32.296 65.1504 31.112 65.1504 29.672V1.736H73.0224V29.96ZM99.4888 1.736L98.6728 7.352H86.9608V15.32H97.1848V20.84H86.9608V29.336H99.4888V35H79.0888V1.736H99.4888ZM127.106 1.736L126.338 7.784H118.13V35H110.258V7.784H101.666V1.736H127.106ZM138.148 1.736V35H130.276V1.736H138.148ZM169.251 1.736L159.987 35H150.195L140.595 1.736H148.899L155.235 28.856L161.187 1.736H169.251ZM184.919 0.919998C189.655 0.919998 193.335 2.44 195.959 5.48C198.615 8.52 199.943 12.808 199.943 18.344C199.943 21.96 199.335 25.08 198.119 27.704C196.935 30.328 195.207 32.344 192.935 33.752C190.695 35.128 188.023 35.816 184.919 35.816C181.815 35.816 179.143 35.128 176.903 33.752C174.663 32.376 172.935 30.392 171.719 27.8C170.535 25.176 169.943 22.024 169.943 18.344C169.943 14.76 170.535 11.656 171.719 9.032C172.935 6.408 174.663 4.408 176.903 3.032C179.143 1.624 181.815 0.919998 184.919 0.919998ZM184.919 6.68C182.647 6.68 180.951 7.608 179.831 9.464C178.743 11.288 178.199 14.248 178.199 18.344C178.199 22.44 178.759 25.416 179.879 27.272C180.999 29.128 182.679 30.056 184.919 30.056C187.223 30.056 188.919 29.144 190.007 27.32C191.127 25.464 191.687 22.472 191.687 18.344C191.687 14.216 191.127 11.24 190.007 9.416C188.887 7.592 187.191 6.68 184.919 6.68Z" fill="#E0E0E0"/>
</svg>
